G04 Layer_Physical_Order=1*
G04 Layer_Color=255*
%FSLAX25Y25*%
%MOIN*%
G70*
G01*
G75*
%ADD10C,0.00800*%
%ADD11C,0.01000*%
%ADD12C,0.01400*%
%ADD13C,0.05905*%
%ADD14R,0.05905X0.05905*%
%ADD15R,0.03937X0.03937*%
%ADD16C,0.03937*%
D10*
X10153Y29653D02*
X23847D01*
X8000Y27500D02*
X10153Y29653D01*
X23847D02*
X25500Y28000D01*
D11*
X7500Y27500D02*
X8000D01*
X5500Y25500D02*
X7500Y27500D01*
D12*
X18000Y13000D02*
X25500D01*
X15500Y15500D02*
X18000Y13000D01*
X23500Y18000D02*
X25500D01*
X21000Y20500D02*
X23500Y18000D01*
X10500Y20500D02*
X21000D01*
X5500Y15500D02*
X10500Y20500D01*
X18000Y23000D02*
X25500D01*
X15500Y25500D02*
X18000Y23000D01*
X5500Y5500D02*
X6500D01*
X5500D02*
X10000Y10000D01*
X23500D01*
X25500Y8000D01*
X15500Y5500D02*
X18000Y3000D01*
X25500D01*
D13*
X15500Y5500D02*
D03*
X5500D02*
D03*
X15500Y15500D02*
D03*
X5500D02*
D03*
X15500Y25500D02*
D03*
D14*
X5500D02*
D03*
D15*
X25500Y28000D02*
D03*
D16*
Y23000D02*
D03*
Y18000D02*
D03*
Y13000D02*
D03*
Y8000D02*
D03*
Y3000D02*
D03*
M02*
